<svg fill="none" xmlns="http://www.w3.org/2000/svg" viewBox="0 0 65 65"><mask id="maskme" style="mask-type:alpha" maskUnits="userSpaceOnUse" x="0" y="0" width="65" height="65"><path d="M32.44 0c.68 0 1.27.465 1.43 1.12a38.90 38.90 0 001.99 5.90c2.15 5 5.10 9.37 8.85 13.12 3.75 3.75 8.12 6.70 13.12 8.85a38.98 38.98 0 005.90 1.99c.66.16 1.12.758 1.12 1.43 0 .68-.464 1.27-1.12 1.43a38.90 38.90 0 00-5.90 1.99c-5 2.15-9.37 5.10-13.12 8.85-3.74 3.75-6.70 8.12-8.85 13.12a38.97 38.97 0 00-2 5.90 1.48 1.48 0 01-1.43 1.12c-.68 0-1.27-.464-1.43-1.12a38.91 38.91 0 00-2-5.90c-2.15-5-5.10-9.37-8.85-13.12-3.75-3.74-8.12-6.70-13.12-8.85a38.97 38.97 0 00-5.90-2A1.48 1.48 0 010 32.44c0-.68.46-1.27 1.12-1.43a38.90 38.90 0 005.90-2c5-2.15 9.37-5.10 13.12-8.85 3.75-3.74 6.70-8.12 8.85-13.12a38.97 38.97 0 001.99-5.90A1.48 1.48 0 0132.44 0z" fill="#000"/><path d="M32.44 0c.68 0 1.27.465 1.43 1.12a38.90 38.90 0 001.99 5.90c2.15 5 5.10 9.37 8.85 13.12 3.75 3.75 8.12 6.70 13.12 8.85a38.98 38.98 0 005.90 1.99c.66.16 1.12.758 1.12 1.43 0 .68-.464 1.27-1.12 1.43a38.90 38.90 0 00-5.90 1.99c-5 2.15-9.37 5.10-13.12 8.85-3.74 3.75-6.70 8.12-8.85 13.12a38.97 38.97 0 00-2 5.90 1.48 1.48 0 01-1.43 1.12c-.68 0-1.27-.464-1.43-1.12a38.91 38.91 0 00-2-5.90c-2.15-5-5.10-9.37-8.85-13.12-3.75-3.74-8.12-6.70-13.12-8.85a38.97 38.97 0 00-5.90-2A1.48 1.48 0 010 32.44c0-.68.46-1.27 1.12-1.43a38.90 38.90 0 005.90-2c5-2.15 9.37-5.10 13.12-8.85 3.75-3.74 6.70-8.12 8.85-13.12a38.97 38.97 0 001.99-5.90A1.48 1.48 0 0132.44 0z" fill="url(#prefix__paint0_linear_2001_67)"/></mask><g mask="url(#maskme)"><g filter="url(#prefix__filter0_f_2001_67)"><path d="M-5.85 50.73c7.49 2.66 16.11-2.33 19.24-11.15 3.13-8.82-.406-18.13-7.90-20.79-7.49-2.66-16.11 2.33-19.25 11.15-3.13 8.82.407 18.13 7.90 20.79z" fill="#FFE432"/></g><g filter="url(#prefix__filter1_f_2001_67)"><path d="M27.43 21.64c10.3 0 18.65-8.53 18.65-19.06 0-10.52-8.35-19.06-18.65-19.06S8.78-7.94 8.78 2.58c0 10.52 8.35 19.06 18.65 19.06z" fill="#FC413D"/></g><g filter="url(#prefix__filter2_f_2001_67)"><path d="M20.18 82.60c10.75-.525 18.91-12.24 18.23-26.17-.68-13.93-9.95-24.79-20.70-24.27C6.96 32.68-1.2 44.40-.519 58.33c.681 13.93 9.95 24.79 20.70 24.27z" fill="#00B95C"/></g><g filter="url(#prefix__filter3_f_2001_67)"><path d="M20.18 82.60c10.75-.525 18.91-12.24 18.23-26.17-.68-13.93-9.95-24.79-20.70-24.27C6.96 32.68-1.2 44.40-.519 58.33c.681 13.93 9.95 24.79 20.70 24.27z" fill="#00B95C"/></g><g filter="url(#prefix__filter4_f_2001_67)"><path d="M30.95 74.18c9.01-5.48 11.42-17.97 5.38-27.9-6.03-9.92-18.24-13.52-27.25-8.04-9.01 5.48-11.42 17.97-5.39 27.90 6.04 9.92 18.24 13.52 27.25 8.03z" fill="#00B95C"/></g><g filter="url(#prefix__filter5_f_2001_67)"><path d="M67.39 42.99c10.13 0 18.34-7.91 18.34-17.66 0-9.75-8.21-17.66-18.34-17.66s-18.34 7.91-18.34 17.66c0 9.75 8.21 17.66 18.34 17.66z" fill="#3186FF"/></g><g filter="url(#prefix__filter6_f_2001_67)"><path d="M-13.06 40.94c9.33 7.09 22.95 4.86 30.44-4.97 7.48-9.84 5.98-23.56-3.34-30.66C4.70-1.78-8.92.439-16.40 10.28c-7.48 9.84-5.98 23.57 3.34 30.66z" fill="#FBBC04"/></g><g filter="url(#prefix__filter7_f_2001_67)"><path d="M34.74 51.43c11.13 7.65 25.89 5.52 32.96-4.76 7.07-10.28 3.77-24.83-7.35-32.48C49.21 6.52 34.45 8.65 27.38 18.94c-7.07 10.28-3.77 24.83 7.35 32.49z" fill="#3186FF"/></g><g filter="url(#prefix__filter8_f_2001_67)"><path d="M54.98-2.33c2.83 3.85-.808 11.34-8.13 16.72-7.32 5.38-15.55 6.63-18.39 2.78-2.83-3.85.807-11.34 8.13-16.72 7.32-5.38 15.55-6.63 18.39-2.78z" fill="#749BFF"/></g><g filter="url(#prefix__filter9_f_2001_67)"><path d="M31.72 16.10C43.05 5.59 46.94-8.62 40.41-15.66c-6.53-7.04-21.00-4.23-32.33 6.27s-15.21 24.73-8.68 31.77c6.53 7.04 21.00 4.23 32.33-6.27z" fill="#FC413D"/></g><g filter="url(#prefix__filter10_f_2001_67)"><path d="M8.51 53.83c6.73 4.81 14.46 5.55 17.26 1.63 2.80-3.91-.384-10.99-7.11-15.81-6.73-4.81-14.46-5.55-17.26-1.63-2.80 3.91.383 10.99 7.11 15.81z" fill="#FFEE48"/></g></g><defs><filter id="prefix__filter0_f_2001_67" x="-19.82" y="13.15" width="39.27" height="43.21" filterUnits="userSpaceOnUse" color-interpolation-filters="sRGB"><feFlood flood-opacity="0" result="BackgroundImageFix"/><feBlend in="SourceGraphic" in2="BackgroundImageFix" result="shape"/><feGaussianBlur stdDeviation="2.46" result="effect1_foregroundBlur_2001_67"/></filter><filter id="prefix__filter1_f_2001_67" x="-15.00" y="-40.25" width="84.86" height="85.68" filterUnits="userSpaceOnUse" color-interpolation-filters="sRGB"><feFlood flood-opacity="0" result="BackgroundImageFix"/><feBlend in="SourceGraphic" in2="BackgroundImageFix" result="shape"/><feGaussianBlur stdDeviation="11.89" result="effect1_foregroundBlur_2001_67"/></filter><filter id="prefix__filter2_f_2001_67" x="-20.77" y="11.92" width="79.45" height="90.91" filterUnits="userSpaceOnUse" color-interpolation-filters="sRGB"><feFlood flood-opacity="0" result="BackgroundImageFix"/><feBlend in="SourceGraphic" in2="BackgroundImageFix" result="shape"/><feGaussianBlur stdDeviation="10.10" result="effect1_foregroundBlur_2001_67"/></filter><filter id="prefix__filter3_f_2001_67" x="-20.77" y="11.92" width="79.45" height="90.91" filterUnits="userSpaceOnUse" color-interpolation-filters="sRGB"><feFlood flood-opacity="0" result="BackgroundImageFix"/><feBlend in="SourceGraphic" in2="BackgroundImageFix" result="shape"/><feGaussianBlur stdDeviation="10.10" result="effect1_foregroundBlur_2001_67"/></filter><filter id="prefix__filter4_f_2001_67" x="-19.84" y="15.45" width="79.73" height="81.50" filterUnits="userSpaceOnUse" color-interpolation-filters="sRGB"><feFlood flood-opacity="0" result="BackgroundImageFix"/><feBlend in="SourceGraphic" in2="BackgroundImageFix" result="shape"/><feGaussianBlur stdDeviation="10.10" result="effect1_foregroundBlur_2001_67"/></filter><filter id="prefix__filter5_f_2001_67" x="29.83" y="-11.55" width="75.11" height="73.75" filterUnits="userSpaceOnUse" color-interpolation-filters="sRGB"><feFlood flood-opacity="0" result="BackgroundImageFix"/><feBlend in="SourceGraphic" in2="BackgroundImageFix" result="shape"/><feGaussianBlur stdDeviation="9.60" result="effect1_foregroundBlur_2001_67"/></filter><filter id="prefix__filter6_f_2001_67" x="-38.58" y="-16.25" width="78.13" height="78.75" filterUnits="userSpaceOnUse" color-interpolation-filters="sRGB"><feFlood flood-opacity="0" result="BackgroundImageFix"/><feBlend in="SourceGraphic" in2="BackgroundImageFix" result="shape"/><feGaussianBlur stdDeviation="8.70" result="effect1_foregroundBlur_2001_67"/></filter><filter id="prefix__filter7_f_2001_67" x="8.10" y="-5.96" width="78.87" height="77.53" filterUnits="userSpaceOnUse" color-interpolation-filters="sRGB"><feFlood flood-opacity="0" result="BackgroundImageFix"/><feBlend in="SourceGraphic" in2="BackgroundImageFix" result="shape"/><feGaussianBlur stdDeviation="7.77" result="effect1_foregroundBlur_2001_67"/></filter><filter id="prefix__filter8_f_2001_67" x="13.58" y="-18.48" width="56.27" height="51.81" filterUnits="userSpaceOnUse" color-interpolation-filters="sRGB"><feFlood flood-opacity="0" result="BackgroundImageFix"/><feBlend in="SourceGraphic" in2="BackgroundImageFix" result="shape"/><feGaussianBlur stdDeviation="6.95" result="effect1_foregroundBlur_2001_67"/></filter><filter id="prefix__filter9_f_2001_67" x="-15.52" y="-31.29" width="70.85" height="69.30" filterUnits="userSpaceOnUse" color-interpolation-filters="sRGB"><feFlood flood-opacity="0" result="BackgroundImageFix"/><feBlend in="SourceGraphic" in2="BackgroundImageFix" result="shape"/><feGaussianBlur stdDeviation="5.87" result="effect1_foregroundBlur_2001_67"/></filter><filter id="prefix__filter10_f_2001_67" x="-14.16" y="20.96" width="55.50" height="51.57" filterUnits="userSpaceOnUse" color-interpolation-filters="sRGB"><feFlood flood-opacity="0" result="BackgroundImageFix"/><feBlend in="SourceGraphic" in2="BackgroundImageFix" result="shape"/><feGaussianBlur stdDeviation="7.27" result="effect1_foregroundBlur_2001_67"/></filter><linearGradient id="prefix__paint0_linear_2001_67" x1="18.44" y1="43.42" x2="52.15" y2="15.00" gradientUnits="userSpaceOnUse"><stop stop-color="#4893FC"/><stop offset=".27" stop-color="#4893FC"/><stop offset=".777" stop-color="#969DFF"/><stop offset="1" stop-color="#BD99FE"/></linearGradient></defs></svg>